<?xml version="1.0" encoding="UTF-8" standalone="no"?>
<!DOCTYPE svg PUBLIC "-//W3C//DTD SVG 1.1//EN" "http://www.w3.org/Graphics/SVG/1.1/DTD/svg11.dtd">
<svg width="100%" height="100%" viewBox="0 0 80 80" version="1.1" xmlns="http://www.w3.org/2000/svg" xmlns:xlink="http://www.w3.org/1999/xlink" xml:space="preserve" xmlns:serif="http://www.serif.com/" style="fill-rule:evenodd;clip-rule:evenodd;">
    <path d="M13.182,47.022L66.818,47.022M13.182,32.978L66.818,32.978M6.219,40L40,6.367L73.781,40L40,73.633L6.219,40ZM0.387,40L40,0.561L79.613,40L40,79.44L0.387,40Z" style="fill:none;fill-rule:nonzero;stroke:black;stroke-width:0.5px;"/>
    <g>
        <path d="M41.639,14.153C41.639,14.152 41.639,14.152 41.639,14.152C40.351,13.409 38.552,14.078 37.653,15.635C36.896,16.948 36.987,18.532 37.871,19.442C37.903,19.055 37.99,18.595 38.244,18.173C38.55,17.665 39.267,17.203 39.965,16.729C40.313,16.492 40.657,16.258 40.934,16.039C41.21,15.82 41.417,15.608 41.496,15.459C41.735,15.009 41.704,14.518 41.649,14.158C41.646,14.156 41.643,14.154 41.639,14.153L41.639,14.153ZM42.079,14.488C42.088,14.849 42.053,15.263 41.85,15.647C41.717,15.897 41.476,16.118 41.182,16.351C40.888,16.584 40.539,16.823 40.191,17.06C39.493,17.534 38.792,18.036 38.585,18.379C38.287,18.875 38.255,19.389 38.262,19.764C38.294,19.787 38.327,19.81 38.361,19.831C39.648,20.573 41.447,19.903 42.346,18.347C42.346,18.346 42.346,18.346 42.347,18.345C43.119,17.005 43.007,15.386 42.079,14.488Z" style="fill-rule:nonzero;"/>
        <g transform="matrix(14,0,0,14,15.2279,45.2386)">
            <path d="M0.53,0L0.474,0L0.474,-0.34L0.14,-0.34L0.14,0L0.084,0L0.084,-0.711L0.14,-0.711L0.14,-0.392L0.474,-0.392L0.474,-0.711L0.53,-0.711L0.53,0Z" style="fill-rule:nonzero;"/>
        </g>
        <g transform="matrix(14,0,0,14,23.8609,45.2386)">
            <rect x="0.094" y="-0.711" width="0.056" height="0.711" style="fill-rule:nonzero;"/>
        </g>
        <g transform="matrix(14,0,0,14,27.3055,45.2386)">
            <path d="M0.14,-0.289L0.14,0L0.084,0L0.084,-0.711L0.291,-0.711C0.353,-0.711 0.403,-0.692 0.439,-0.654C0.475,-0.617 0.493,-0.565 0.493,-0.499C0.493,-0.431 0.476,-0.379 0.441,-0.343C0.406,-0.307 0.355,-0.289 0.29,-0.289L0.14,-0.289ZM0.14,-0.341L0.291,-0.341C0.337,-0.341 0.374,-0.355 0.399,-0.382C0.425,-0.409 0.438,-0.448 0.438,-0.498C0.438,-0.547 0.425,-0.587 0.399,-0.615C0.373,-0.644 0.337,-0.658 0.291,-0.658L0.14,-0.658L0.14,-0.341Z" style="fill-rule:nonzero;"/>
        </g>
        <g transform="matrix(14,0,0,14,34.879,45.2386)">
            <path d="M0.418,-0.175C0.418,-0.215 0.407,-0.246 0.384,-0.269C0.361,-0.291 0.319,-0.313 0.257,-0.334C0.195,-0.355 0.15,-0.378 0.121,-0.404C0.083,-0.437 0.064,-0.482 0.064,-0.537C0.064,-0.591 0.083,-0.635 0.12,-0.669C0.158,-0.704 0.206,-0.721 0.265,-0.721C0.326,-0.721 0.375,-0.701 0.414,-0.661C0.452,-0.621 0.471,-0.57 0.471,-0.508L0.415,-0.508C0.415,-0.556 0.402,-0.594 0.375,-0.624C0.348,-0.653 0.311,-0.668 0.265,-0.668C0.22,-0.668 0.185,-0.656 0.159,-0.632C0.133,-0.607 0.12,-0.576 0.12,-0.538C0.12,-0.502 0.132,-0.472 0.157,-0.45C0.181,-0.427 0.22,-0.407 0.273,-0.389C0.327,-0.371 0.367,-0.353 0.395,-0.334C0.422,-0.315 0.442,-0.292 0.455,-0.267C0.468,-0.241 0.475,-0.211 0.475,-0.176C0.475,-0.12 0.456,-0.075 0.418,-0.041C0.381,-0.007 0.331,0.01 0.269,0.01C0.227,0.01 0.189,0.001 0.155,-0.016C0.121,-0.033 0.094,-0.058 0.074,-0.09C0.055,-0.122 0.045,-0.16 0.045,-0.203L0.101,-0.203C0.101,-0.153 0.116,-0.114 0.146,-0.085C0.177,-0.056 0.218,-0.042 0.269,-0.042C0.314,-0.042 0.35,-0.054 0.377,-0.078C0.404,-0.102 0.418,-0.134 0.418,-0.175Z" style="fill-rule:nonzero;"/>
        </g>
        <g transform="matrix(14,0,0,14,42.1448,45.2386)">
            <path d="M0.491,-0.658L0.289,-0.658L0.289,0L0.232,0L0.232,-0.658L0.031,-0.658L0.031,-0.711L0.491,-0.711L0.491,-0.658Z" style="fill-rule:nonzero;"/>
        </g>
        <g transform="matrix(14,0,0,14,49.4654,45.2386)">
            <path d="M0.416,-0.34L0.14,-0.34L0.14,-0.052L0.457,-0.052L0.457,0L0.084,0L0.084,-0.711L0.455,-0.711L0.455,-0.658L0.14,-0.658L0.14,-0.392L0.416,-0.392L0.416,-0.34Z" style="fill-rule:nonzero;"/>
        </g>
        <g transform="matrix(14,0,0,14,56.451,45.2386)">
            <path d="M0.305,-0.296L0.139,-0.296L0.139,0L0.083,0L0.083,-0.711L0.278,-0.711C0.343,-0.711 0.393,-0.692 0.428,-0.656C0.464,-0.619 0.482,-0.567 0.482,-0.501C0.482,-0.456 0.471,-0.415 0.449,-0.381C0.427,-0.346 0.397,-0.322 0.359,-0.309L0.507,-0.006L0.507,0L0.448,0L0.305,-0.296ZM0.139,-0.348L0.288,-0.348C0.33,-0.348 0.363,-0.362 0.388,-0.391C0.413,-0.42 0.426,-0.457 0.426,-0.501C0.426,-0.551 0.413,-0.59 0.387,-0.617C0.361,-0.645 0.324,-0.658 0.277,-0.658L0.139,-0.658L0.139,-0.348Z" style="fill-rule:nonzero;"/>
        </g>
        <g transform="matrix(10,0,0,10,24.2236,56.2553)">
            <path d="M0.51,-0.222C0.505,-0.142 0.484,-0.083 0.446,-0.046C0.408,-0.009 0.356,0.01 0.289,0.01C0.22,0.01 0.166,-0.016 0.126,-0.068C0.087,-0.12 0.067,-0.191 0.066,-0.28L0.066,-0.434C0.066,-0.524 0.087,-0.594 0.127,-0.645C0.168,-0.695 0.223,-0.721 0.293,-0.721C0.36,-0.721 0.411,-0.702 0.448,-0.664C0.484,-0.625 0.505,-0.567 0.51,-0.488L0.454,-0.488C0.448,-0.553 0.433,-0.599 0.408,-0.626C0.383,-0.654 0.345,-0.668 0.293,-0.668C0.24,-0.668 0.198,-0.648 0.168,-0.608C0.138,-0.568 0.123,-0.51 0.123,-0.434L0.123,-0.281C0.123,-0.206 0.138,-0.147 0.167,-0.105C0.195,-0.063 0.236,-0.042 0.289,-0.042C0.344,-0.042 0.384,-0.056 0.409,-0.083C0.434,-0.111 0.449,-0.157 0.454,-0.222L0.51,-0.222Z" style="fill-rule:nonzero;"/>
        </g>
        <g transform="matrix(10,0,0,10,29.8779,56.2553)">
            <path d="M0.525,-0.278C0.525,-0.187 0.505,-0.116 0.465,-0.065C0.424,-0.015 0.368,0.01 0.295,0.01C0.223,0.01 0.167,-0.015 0.126,-0.065C0.085,-0.116 0.065,-0.186 0.064,-0.277L0.064,-0.432C0.064,-0.523 0.085,-0.594 0.125,-0.645C0.166,-0.695 0.222,-0.721 0.294,-0.721C0.367,-0.721 0.424,-0.695 0.464,-0.645C0.505,-0.594 0.525,-0.522 0.525,-0.43L0.525,-0.278ZM0.469,-0.433C0.469,-0.51 0.454,-0.569 0.424,-0.608C0.394,-0.647 0.351,-0.667 0.294,-0.667C0.24,-0.667 0.198,-0.647 0.167,-0.609C0.136,-0.571 0.121,-0.514 0.12,-0.438L0.12,-0.278C0.12,-0.2 0.136,-0.142 0.167,-0.102C0.197,-0.063 0.24,-0.043 0.295,-0.043C0.352,-0.043 0.395,-0.063 0.425,-0.102C0.454,-0.141 0.469,-0.2 0.469,-0.278L0.469,-0.433Z" style="fill-rule:nonzero;"/>
        </g>
        <g transform="matrix(10,0,0,10,35.7764,56.2553)">
            <path d="M0.413,-0.331L0.14,-0.331L0.14,0L0.084,0L0.084,-0.711L0.454,-0.711L0.454,-0.658L0.14,-0.658L0.14,-0.384L0.413,-0.384L0.413,-0.331Z" style="fill-rule:nonzero;"/>
        </g>
        <g transform="matrix(10,0,0,10,40.6787,56.2553)">
            <path d="M0.413,-0.331L0.14,-0.331L0.14,0L0.084,0L0.084,-0.711L0.454,-0.711L0.454,-0.658L0.14,-0.658L0.14,-0.384L0.413,-0.384L0.413,-0.331Z" style="fill-rule:nonzero;"/>
        </g>
        <g transform="matrix(10,0,0,10,45.5811,56.2553)">
            <path d="M0.416,-0.34L0.14,-0.34L0.14,-0.052L0.457,-0.052L0.457,0L0.084,0L0.084,-0.711L0.455,-0.711L0.455,-0.658L0.14,-0.658L0.14,-0.392L0.416,-0.392L0.416,-0.34Z" style="fill-rule:nonzero;"/>
        </g>
        <g transform="matrix(10,0,0,10,50.5518,56.2553)">
            <path d="M0.416,-0.34L0.14,-0.34L0.14,-0.052L0.457,-0.052L0.457,0L0.084,0L0.084,-0.711L0.455,-0.711L0.455,-0.658L0.14,-0.658L0.14,-0.392L0.416,-0.392L0.416,-0.34Z" style="fill-rule:nonzero;"/>
        </g>
        <g transform="matrix(10,0,0,10,22.0634,30.9153)">
            <path d="M0.517,-0.083C0.493,-0.052 0.463,-0.029 0.427,-0.013C0.391,0.002 0.352,0.01 0.309,0.01C0.236,0.01 0.178,-0.015 0.137,-0.063C0.095,-0.112 0.073,-0.18 0.072,-0.267L0.072,-0.439C0.072,-0.53 0.092,-0.6 0.131,-0.648C0.171,-0.697 0.227,-0.721 0.3,-0.721C0.366,-0.721 0.417,-0.703 0.454,-0.667C0.491,-0.63 0.512,-0.578 0.517,-0.51L0.461,-0.51C0.455,-0.565 0.439,-0.605 0.413,-0.63C0.387,-0.655 0.349,-0.668 0.301,-0.668C0.243,-0.668 0.199,-0.649 0.171,-0.61C0.142,-0.572 0.127,-0.515 0.127,-0.44L0.127,-0.276C0.127,-0.202 0.143,-0.145 0.175,-0.104C0.207,-0.063 0.251,-0.042 0.309,-0.042C0.371,-0.042 0.422,-0.062 0.461,-0.101L0.461,-0.286L0.305,-0.286L0.305,-0.338L0.517,-0.338L0.517,-0.083Z" style="fill-rule:nonzero;"/>
        </g>
        <g transform="matrix(10,0,0,10,27.967,30.9153)">
            <path d="M0.416,-0.34L0.14,-0.34L0.14,-0.052L0.457,-0.052L0.457,0L0.084,0L0.084,-0.711L0.455,-0.711L0.455,-0.658L0.14,-0.658L0.14,-0.392L0.416,-0.392L0.416,-0.34Z" style="fill-rule:nonzero;"/>
        </g>
        <g transform="matrix(10,0,0,10,32.9087,30.9153)">
            <path d="M0.531,0L0.476,0L0.14,-0.605L0.14,0L0.084,0L0.084,-0.711L0.14,-0.711L0.476,-0.104L0.476,-0.711L0.531,-0.711L0.531,0Z" style="fill-rule:nonzero;"/>
        </g>
        <g transform="matrix(10,0,0,10,39.0419,30.9153)">
            <path d="M0.416,-0.34L0.14,-0.34L0.14,-0.052L0.457,-0.052L0.457,0L0.084,0L0.084,-0.711L0.455,-0.711L0.455,-0.658L0.14,-0.658L0.14,-0.392L0.416,-0.392L0.416,-0.34Z" style="fill-rule:nonzero;"/>
        </g>
        <g transform="matrix(10,0,0,10,43.9836,30.9153)">
            <path d="M0.305,-0.296L0.139,-0.296L0.139,0L0.083,0L0.083,-0.711L0.278,-0.711C0.343,-0.711 0.393,-0.692 0.428,-0.656C0.464,-0.619 0.482,-0.567 0.482,-0.501C0.482,-0.456 0.471,-0.415 0.449,-0.381C0.427,-0.346 0.397,-0.322 0.359,-0.309L0.507,-0.006L0.507,0L0.448,0L0.305,-0.296ZM0.139,-0.348L0.288,-0.348C0.33,-0.348 0.363,-0.362 0.388,-0.391C0.413,-0.42 0.426,-0.457 0.426,-0.501C0.426,-0.551 0.413,-0.59 0.387,-0.617C0.361,-0.645 0.324,-0.658 0.277,-0.658L0.139,-0.658L0.139,-0.348Z" style="fill-rule:nonzero;"/>
        </g>
        <g transform="matrix(10,0,0,10,49.4526,30.9153)">
            <rect x="0.094" y="-0.711" width="0.056" height="0.711" style="fill-rule:nonzero;"/>
        </g>
        <g transform="matrix(10,0,0,10,51.865,30.9153)">
            <path d="M0.51,-0.222C0.505,-0.142 0.484,-0.083 0.446,-0.046C0.408,-0.009 0.356,0.01 0.289,0.01C0.22,0.01 0.166,-0.016 0.126,-0.068C0.087,-0.12 0.067,-0.191 0.066,-0.28L0.066,-0.434C0.066,-0.524 0.087,-0.594 0.127,-0.645C0.168,-0.695 0.223,-0.721 0.293,-0.721C0.36,-0.721 0.411,-0.702 0.448,-0.664C0.484,-0.625 0.505,-0.567 0.51,-0.488L0.454,-0.488C0.448,-0.553 0.433,-0.599 0.408,-0.626C0.383,-0.654 0.345,-0.668 0.293,-0.668C0.24,-0.668 0.198,-0.648 0.168,-0.608C0.138,-0.568 0.123,-0.51 0.123,-0.434L0.123,-0.281C0.123,-0.206 0.138,-0.147 0.167,-0.105C0.195,-0.063 0.236,-0.042 0.289,-0.042C0.344,-0.042 0.384,-0.056 0.409,-0.083C0.434,-0.111 0.449,-0.157 0.454,-0.222L0.51,-0.222Z" style="fill-rule:nonzero;"/>
        </g>
        <g transform="matrix(3.33333,0,0,3.33333,33.5715,63.4845)">
            <path d="M0.416,-0.34L0.14,-0.34L0.14,-0.052L0.457,-0.052L0.457,0L0.084,0L0.084,-0.711L0.455,-0.711L0.455,-0.658L0.14,-0.658L0.14,-0.392L0.416,-0.392L0.416,-0.34Z" style="fill-rule:nonzero;"/>
        </g>
        <g transform="matrix(3.33333,0,0,3.33333,35.2284,63.4845)">
            <path d="M0.418,-0.175C0.418,-0.215 0.407,-0.246 0.384,-0.269C0.361,-0.291 0.319,-0.313 0.257,-0.334C0.195,-0.355 0.15,-0.378 0.121,-0.404C0.083,-0.437 0.064,-0.482 0.064,-0.537C0.064,-0.591 0.083,-0.635 0.12,-0.669C0.158,-0.704 0.206,-0.721 0.265,-0.721C0.326,-0.721 0.375,-0.701 0.414,-0.661C0.452,-0.621 0.471,-0.57 0.471,-0.508L0.415,-0.508C0.415,-0.556 0.402,-0.594 0.375,-0.624C0.348,-0.653 0.311,-0.668 0.265,-0.668C0.22,-0.668 0.185,-0.656 0.159,-0.632C0.133,-0.607 0.12,-0.576 0.12,-0.538C0.12,-0.502 0.132,-0.472 0.157,-0.45C0.181,-0.427 0.22,-0.407 0.273,-0.389C0.327,-0.371 0.367,-0.353 0.395,-0.334C0.422,-0.315 0.442,-0.292 0.455,-0.267C0.468,-0.241 0.475,-0.211 0.475,-0.176C0.475,-0.12 0.456,-0.075 0.418,-0.041C0.381,-0.007 0.331,0.01 0.269,0.01C0.227,0.01 0.189,0.001 0.155,-0.016C0.121,-0.033 0.094,-0.058 0.074,-0.09C0.055,-0.122 0.045,-0.16 0.045,-0.203L0.101,-0.203C0.101,-0.153 0.116,-0.114 0.146,-0.085C0.177,-0.056 0.218,-0.042 0.269,-0.042C0.314,-0.042 0.35,-0.054 0.377,-0.078C0.404,-0.102 0.418,-0.134 0.418,-0.175Z" style="fill-rule:nonzero;"/>
        </g>
        <g transform="matrix(3.33333,0,0,3.33333,36.952,63.4845)">
            <path d="M0.491,-0.658L0.289,-0.658L0.289,0L0.232,0L0.232,-0.658L0.031,-0.658L0.031,-0.711L0.491,-0.711L0.491,-0.658Z" style="fill-rule:nonzero;"/>
        </g>
        <g transform="matrix(3.33333,0,0,3.33333,38.3338,63.4845)">
            <path d="M0.071,-0.036C0.071,-0.047 0.074,-0.057 0.082,-0.065C0.089,-0.073 0.099,-0.077 0.112,-0.077C0.125,-0.077 0.136,-0.073 0.143,-0.065C0.151,-0.057 0.154,-0.047 0.154,-0.036C0.154,-0.024 0.151,-0.015 0.143,-0.007C0.136,0 0.125,0.004 0.112,0.004C0.099,0.004 0.089,0 0.082,-0.007C0.074,-0.015 0.071,-0.024 0.071,-0.036Z" style="fill-rule:nonzero;"/>
        </g>
        <g transform="matrix(3.33333,0,0,3.33333,39.8784,63.4845)">
            <path d="M0.442,0L0.065,0L0.065,-0.046L0.267,-0.319C0.301,-0.365 0.325,-0.404 0.338,-0.435C0.351,-0.465 0.358,-0.495 0.358,-0.524C0.358,-0.569 0.347,-0.604 0.326,-0.631C0.305,-0.657 0.275,-0.67 0.237,-0.67C0.197,-0.67 0.165,-0.655 0.142,-0.624C0.118,-0.594 0.106,-0.554 0.106,-0.506L0.052,-0.506C0.052,-0.568 0.069,-0.619 0.103,-0.66C0.137,-0.7 0.182,-0.721 0.237,-0.721C0.291,-0.721 0.334,-0.704 0.366,-0.67C0.397,-0.636 0.413,-0.59 0.413,-0.53C0.413,-0.473 0.387,-0.406 0.336,-0.33L0.305,-0.285L0.131,-0.05L0.442,-0.05L0.442,0Z" style="fill-rule:nonzero;"/>
        </g>
        <g transform="matrix(3.33333,0,0,3.33333,41.4995,63.4845)">
            <path d="M0.428,-0.297C0.428,-0.196 0.412,-0.12 0.381,-0.068C0.35,-0.016 0.304,0.01 0.244,0.01C0.184,0.01 0.138,-0.016 0.107,-0.068C0.075,-0.119 0.059,-0.194 0.059,-0.291L0.059,-0.416C0.059,-0.515 0.074,-0.59 0.105,-0.643C0.136,-0.695 0.182,-0.721 0.243,-0.721C0.303,-0.721 0.348,-0.696 0.379,-0.645C0.411,-0.595 0.427,-0.522 0.428,-0.425L0.428,-0.297ZM0.373,-0.424C0.373,-0.505 0.362,-0.567 0.341,-0.608C0.319,-0.649 0.286,-0.67 0.243,-0.67C0.201,-0.67 0.169,-0.65 0.147,-0.611C0.125,-0.571 0.113,-0.512 0.112,-0.434L0.112,-0.29C0.112,-0.211 0.123,-0.149 0.146,-0.106C0.168,-0.062 0.201,-0.041 0.244,-0.041C0.285,-0.041 0.317,-0.061 0.339,-0.102C0.361,-0.143 0.372,-0.204 0.373,-0.284L0.373,-0.424Z" style="fill-rule:nonzero;"/>
        </g>
        <g transform="matrix(3.33333,0,0,3.33333,43.1206,63.4845)">
            <path d="M0.297,0L0.243,0L0.243,-0.639L0.082,-0.567L0.082,-0.623L0.288,-0.713L0.297,-0.713L0.297,0Z" style="fill-rule:nonzero;"/>
        </g>
        <g transform="matrix(3.33333,0,0,3.33333,44.7417,63.4845)">
            <path d="M0.428,-0.297C0.428,-0.196 0.412,-0.12 0.381,-0.068C0.35,-0.016 0.304,0.01 0.244,0.01C0.184,0.01 0.138,-0.016 0.107,-0.068C0.075,-0.119 0.059,-0.194 0.059,-0.291L0.059,-0.416C0.059,-0.515 0.074,-0.59 0.105,-0.643C0.136,-0.695 0.182,-0.721 0.243,-0.721C0.303,-0.721 0.348,-0.696 0.379,-0.645C0.411,-0.595 0.427,-0.522 0.428,-0.425L0.428,-0.297ZM0.373,-0.424C0.373,-0.505 0.362,-0.567 0.341,-0.608C0.319,-0.649 0.286,-0.67 0.243,-0.67C0.201,-0.67 0.169,-0.65 0.147,-0.611C0.125,-0.571 0.113,-0.512 0.112,-0.434L0.112,-0.29C0.112,-0.211 0.123,-0.149 0.146,-0.106C0.168,-0.062 0.201,-0.041 0.244,-0.041C0.285,-0.041 0.317,-0.061 0.339,-0.102C0.361,-0.143 0.372,-0.204 0.373,-0.284L0.373,-0.424Z" style="fill-rule:nonzero;"/>
        </g>
    </g>
</svg>
