<?xml version="1.0" encoding="UTF-8" standalone="no"?><!DOCTYPE svg PUBLIC "-//W3C//DTD SVG 1.1//EN" "http://www.w3.org/Graphics/SVG/1.1/DTD/svg11.dtd"><svg width="100%" height="100%" viewBox="0 0 334 334" version="1.1" xmlns="http://www.w3.org/2000/svg" xmlns:xlink="http://www.w3.org/1999/xlink" xml:space="preserve" xmlns:serif="http://www.serif.com/" style="fill-rule:evenodd;clip-rule:evenodd;"><path d="M54.924,195.925l223.485,0m-223.485,-58.517l223.485,0m-252.496,29.259l140.754,-140.137l140.754,140.137l-140.754,140.136l-140.754,-140.136Zm-24.301,0l165.055,-164.332l165.055,164.332l-165.055,164.331l-165.055,-164.331Z" style="fill:none;fill-rule:nonzero;stroke:#000;stroke-width:2.08px;"/><g><path d="M173.497,58.969c-0.001,-0.001 -0.002,-0.001 -0.003,-0.002c-5.365,-3.097 -12.861,-0.307 -16.607,6.18c-3.153,5.471 -2.775,12.07 0.907,15.86c0.135,-1.612 0.498,-3.527 1.557,-5.284c1.276,-2.119 4.262,-4.043 7.168,-6.02c1.453,-0.988 2.886,-1.962 4.038,-2.875c1.151,-0.913 2.014,-1.795 2.343,-2.415c0.994,-1.876 0.865,-3.919 0.639,-5.42c-0.014,-0.008 -0.028,-0.016 -0.042,-0.024l0,0Zm1.834,1.397c0.037,1.506 -0.109,3.23 -0.958,4.832c-0.552,1.042 -1.558,1.961 -2.783,2.932c-1.224,0.971 -2.676,1.965 -4.129,2.953c-2.907,1.977 -5.826,4.066 -6.689,5.498c-1.244,2.066 -1.378,4.205 -1.349,5.771c0.136,0.095 0.274,0.188 0.414,0.276c5.365,3.094 12.859,0.303 16.603,-6.183c0.002,-0.002 0.003,-0.004 0.004,-0.006c3.22,-5.585 2.753,-12.33 -1.113,-16.073Z" style="fill-rule:nonzero;"/><path d="M95.635,188.494l-3.389,0l0,-19.055l-18.628,0l0,19.055l-3.418,0l0,-41.471l3.418,0l0,19.454l18.628,0l0,-19.454l3.389,0l0,41.471Z" style="fill-rule:nonzero;"/><rect x="105.573" y="147.023" width="3.446" height="41.471" style="fill-rule:nonzero;"/><path d="M122.403,171.319l0,17.175l-3.418,0l0,-41.471l12.277,0c3.626,0 6.437,1.111 8.431,3.332c1.993,2.222 2.99,5.156 2.99,8.802c0,3.683 -0.997,6.631 -2.99,8.844c-1.994,2.212 -4.805,3.318 -8.431,3.318l-8.859,0Zm0,-2.991l8.859,0c2.658,0 4.652,-0.869 5.981,-2.606c1.329,-1.738 1.994,-3.907 1.994,-6.508c0,-2.64 -0.665,-4.828 -1.994,-6.566c-1.329,-1.737 -3.323,-2.606 -5.981,-2.606l-8.859,0l0,18.286Z" style="fill-rule:nonzero;"/><path d="M169.169,178.326c0,-2.26 -0.659,-4.097 -1.979,-5.512c-1.32,-1.414 -3.641,-2.663 -6.964,-3.745c-3.779,-1.159 -6.642,-2.654 -8.588,-4.486c-1.946,-1.833 -2.919,-4.287 -2.919,-7.363c0,-3.171 1.087,-5.763 3.261,-7.776c2.174,-2.013 4.98,-3.019 8.417,-3.019c3.608,0 6.508,1.186 8.701,3.56c2.193,2.374 3.262,5.269 3.205,8.687l-0.086,0.171l-3.218,0c0,-2.753 -0.765,-5.008 -2.293,-6.764c-1.529,-1.757 -3.632,-2.635 -6.309,-2.635c-2.602,0 -4.624,0.731 -6.067,2.193c-1.443,1.462 -2.165,3.295 -2.165,5.497c0,2.051 0.698,3.774 2.094,5.17c1.395,1.396 3.764,2.616 7.106,3.66c3.684,1.139 6.48,2.682 8.388,4.629c1.909,1.946 2.863,4.505 2.863,7.676c0,3.323 -1.125,5.957 -3.375,7.904c-2.251,1.946 -5.142,2.919 -8.673,2.919c-3.475,0 -6.499,-1.044 -9.072,-3.133c-2.573,-2.089 -3.812,-5.117 -3.717,-9.086l0.057,-0.171l3.19,0c0,3.228 0.935,5.607 2.805,7.135c1.871,1.529 4.116,2.293 6.737,2.293c2.582,0 4.661,-0.712 6.237,-2.136c1.576,-1.424 2.364,-3.314 2.364,-5.668Z" style="fill-rule:nonzero;"/><path d="M202.833,150.042l-11.592,0l0,38.452l-3.418,0l0,-38.452l-11.564,0l0,-3.019l26.574,0l0,3.019Z" style="fill-rule:nonzero;"/><path d="M228.579,168.471l-16.292,0l0,17.061l18.713,0l0,2.962l-22.131,0l0,-41.471l21.96,0l0,3.019l-18.542,0l0,15.466l16.292,0l0,2.963Z" style="fill-rule:nonzero;"/><path d="M240.852,169.781l0,18.713l-3.418,0l0,-41.443l11.906,0c3.722,0 6.57,0.978 8.545,2.934c1.975,1.956 2.962,4.804 2.962,8.545c0,2.203 -0.522,4.163 -1.566,5.882c-1.045,1.718 -2.526,2.986 -4.444,3.802c2.108,0.646 3.622,1.804 4.543,3.475c0.921,1.671 1.382,3.75 1.382,6.238l0,3.902c0,1.291 0.123,2.45 0.37,3.475c0.247,1.025 0.665,1.861 1.253,2.507l0,0.683l-3.503,0c-0.589,-0.683 -0.992,-1.633 -1.211,-2.848c-0.218,-1.215 -0.327,-2.507 -0.327,-3.874l0,-3.788c0,-2.507 -0.636,-4.5 -1.909,-5.982c-1.272,-1.481 -3.019,-2.221 -5.241,-2.221l-9.342,0Zm0,-2.962l8.089,0c2.925,0 5.065,-0.746 6.423,-2.236c1.358,-1.491 2.037,-3.518 2.037,-6.082c0,-2.715 -0.665,-4.804 -1.994,-6.266c-1.329,-1.462 -3.352,-2.193 -6.067,-2.193l-8.488,0l0,16.777Z" style="fill-rule:nonzero;"/><path d="M122.701,225.791l0.061,0.122c-0.027,2.889 -0.787,5.097 -2.279,6.623c-1.492,1.526 -3.546,2.288 -6.164,2.288c-2.726,0 -4.89,-0.963 -6.49,-2.889c-1.601,-1.925 -2.401,-4.672 -2.401,-8.239l0,-8.199c0,-3.54 0.804,-6.284 2.411,-8.23c1.607,-1.946 3.767,-2.919 6.48,-2.919c2.645,0 4.706,0.746 6.185,2.238c1.478,1.492 2.231,3.716 2.258,6.673l-0.061,0.122l-2.258,0c-0.068,-2.347 -0.611,-4.079 -1.628,-5.198c-1.017,-1.119 -2.516,-1.679 -4.496,-1.679c-2.035,0 -3.622,0.767 -4.761,2.299c-1.139,1.533 -1.709,3.744 -1.709,6.633l0,8.26c0,2.943 0.57,5.181 1.709,6.714c1.139,1.532 2.726,2.299 4.761,2.299c1.98,0 3.479,-0.546 4.496,-1.638c1.017,-1.092 1.56,-2.852 1.628,-5.28l2.258,0Z" style="fill-rule:nonzero;"/><path d="M145.528,223.757c0,3.594 -0.837,6.337 -2.512,8.229c-1.676,1.892 -3.971,2.838 -6.887,2.838c-2.862,0 -5.11,-0.946 -6.745,-2.838c-1.634,-1.892 -2.451,-4.635 -2.451,-8.229l0,-8.301c0,-3.594 0.814,-6.344 2.441,-8.25c1.628,-1.906 3.873,-2.858 6.734,-2.858c2.917,0 5.216,0.956 6.897,2.868c1.682,1.913 2.523,4.659 2.523,8.24l0,8.301Zm-2.421,-8.362c0,-2.93 -0.603,-5.134 -1.811,-6.612c-1.207,-1.479 -2.936,-2.218 -5.188,-2.218c-2.183,0 -3.858,0.739 -5.025,2.218c-1.166,1.478 -1.749,3.682 -1.749,6.612l0,8.362c0,2.97 0.583,5.195 1.749,6.673c1.167,1.478 2.848,2.218 5.046,2.218c2.251,0 3.977,-0.74 5.178,-2.218c1.2,-1.478 1.8,-3.703 1.8,-6.673l0,-8.362Z" style="fill-rule:nonzero;"/><path d="M165.141,220.583l-11.699,0l0,13.814l-2.441,0l0,-29.622l15.869,0l0,2.156l-13.428,0l0,11.495l11.699,0l0,2.157Z" style="fill-rule:nonzero;"/><path d="M185.486,220.583l-11.699,0l0,13.814l-2.441,0l0,-29.622l15.869,0l0,2.156l-13.428,0l0,11.495l11.699,0l0,2.157Z" style="fill-rule:nonzero;"/><path d="M205.77,220.095l-11.638,0l0,12.186l13.367,0l0,2.116l-15.808,0l0,-29.622l15.686,0l0,2.156l-13.245,0l0,11.048l11.638,0l0,2.116Z" style="fill-rule:nonzero;"/><path d="M226.135,220.095l-11.637,0l0,12.186l13.367,0l0,2.116l-15.809,0l0,-29.622l15.687,0l0,2.156l-13.245,0l0,11.048l11.637,0l0,2.116Z" style="fill-rule:nonzero;"/><path d="M114.87,124.786c-0.543,1.112 -1.543,2.132 -3.001,3.062c-1.458,0.929 -3.313,1.393 -5.564,1.393c-2.971,0 -5.361,-0.942 -7.172,-2.828c-1.811,-1.885 -2.716,-4.591 -2.716,-8.117l0,-8.81c0,-3.459 0.855,-6.11 2.564,-7.955c1.708,-1.844 3.994,-2.767 6.856,-2.767c2.794,0 4.957,0.729 6.49,2.187c1.533,1.458 2.333,3.49 2.401,6.094l-0.041,0.122l-2.279,0c-0.081,-1.994 -0.664,-3.533 -1.749,-4.619c-1.085,-1.085 -2.693,-1.627 -4.822,-1.627c-2.157,0 -3.859,0.729 -5.107,2.187c-1.248,1.458 -1.872,3.571 -1.872,6.337l0,8.851c0,2.875 0.672,5.065 2.015,6.571c1.342,1.506 3.153,2.258 5.432,2.258c1.668,0 3.004,-0.298 4.008,-0.895c1.003,-0.597 1.702,-1.322 2.095,-2.177l0,-7.69l-6.144,0l0,-2.136l8.606,0l0,10.559Z" style="fill-rule:nonzero;"/><path d="M135.46,114.511l-11.637,0l0,12.187l13.367,0l0,2.116l-15.808,0l0,-29.622l15.686,0l0,2.156l-13.245,0l0,11.047l11.637,0l0,2.116Z" style="fill-rule:nonzero;"/><path d="M159.876,128.814l-2.442,0l-13.224,-24.801l-0.122,0.021l0,24.78l-2.462,0l0,-29.622l2.462,0l13.224,24.8l0.122,-0.02l0,-24.78l2.442,0l0,29.622Z" style="fill-rule:nonzero;"/><path d="M180.507,114.511l-11.638,0l0,12.187l13.367,0l0,2.116l-15.808,0l0,-29.622l15.686,0l0,2.156l-13.245,0l0,11.047l11.638,0l0,2.116Z" style="fill-rule:nonzero;"/><path d="M189.073,115.447l0,13.367l-2.441,0l0,-29.602l8.504,0c2.659,0 4.693,0.698 6.104,2.095c1.41,1.397 2.116,3.432 2.116,6.104c0,1.573 -0.373,2.974 -1.119,4.201c-0.746,1.228 -1.804,2.133 -3.174,2.716c1.505,0.461 2.587,1.289 3.245,2.482c0.658,1.194 0.987,2.679 0.987,4.456l0,2.787c0,0.922 0.088,1.75 0.264,2.482c0.176,0.733 0.475,1.329 0.895,1.791l0,0.488l-2.502,0c-0.421,-0.488 -0.709,-1.167 -0.865,-2.035c-0.156,-0.868 -0.234,-1.79 -0.234,-2.767l0,-2.705c0,-1.791 -0.454,-3.215 -1.363,-4.273c-0.909,-1.058 -2.157,-1.587 -3.743,-1.587l-6.674,0Zm0,-2.116l5.778,0c2.089,0 3.618,-0.532 4.588,-1.597c0.97,-1.064 1.455,-2.512 1.455,-4.343c0,-1.94 -0.475,-3.432 -1.424,-4.476c-0.95,-1.045 -2.394,-1.567 -4.334,-1.567l-6.063,0l0,11.983Z" style="fill-rule:nonzero;"/><rect x="210.03" y="99.192" width="2.462" height="29.622" style="fill-rule:nonzero;"/><path d="M235.585,120.208l0.061,0.122c-0.027,2.889 -0.787,5.096 -2.279,6.622c-1.492,1.526 -3.547,2.289 -6.165,2.289c-2.726,0 -4.889,-0.963 -6.49,-2.889c-1.6,-1.926 -2.4,-4.672 -2.4,-8.24l0,-8.199c0,-3.54 0.803,-6.283 2.411,-8.229c1.607,-1.947 3.767,-2.92 6.479,-2.92c2.645,0 4.707,0.746 6.185,2.238c1.479,1.492 2.232,3.717 2.259,6.673l-0.061,0.122l-2.259,0c-0.068,-2.346 -0.61,-4.079 -1.627,-5.198c-1.018,-1.119 -2.516,-1.678 -4.497,-1.678c-2.034,0 -3.621,0.766 -4.76,2.299c-1.14,1.533 -1.709,3.743 -1.709,6.632l0,8.26c0,2.944 0.569,5.182 1.709,6.714c1.139,1.533 2.726,2.299 4.76,2.299c1.981,0 3.479,-0.546 4.497,-1.637c1.017,-1.092 1.559,-2.852 1.627,-5.28l2.259,0Z" style="fill-rule:nonzero;"/><path d="M146.547,259.751l-3.879,0l0,4.062l4.456,0l0,0.706l-5.269,0l0,-9.875l5.228,0l0,0.719l-4.415,0l0,3.683l3.879,0l0,0.705Z" style="fill-rule:nonzero;"/><path d="M153.241,262.097c0,-0.538 -0.157,-0.975 -0.471,-1.312c-0.315,-0.337 -0.867,-0.634 -1.658,-0.892c-0.9,-0.275 -1.582,-0.631 -2.045,-1.068c-0.464,-0.436 -0.695,-1.02 -0.695,-1.753c0,-0.755 0.259,-1.372 0.776,-1.851c0.518,-0.479 1.186,-0.719 2.004,-0.719c0.859,0 1.55,0.283 2.072,0.848c0.522,0.565 0.777,1.254 0.763,2.068l-0.02,0.041l-0.767,0c0,-0.656 -0.182,-1.193 -0.546,-1.611c-0.364,-0.418 -0.864,-0.627 -1.502,-0.627c-0.619,0 -1.101,0.174 -1.444,0.522c-0.344,0.348 -0.516,0.784 -0.516,1.309c0,0.488 0.166,0.898 0.499,1.231c0.332,0.332 0.896,0.623 1.692,0.871c0.877,0.272 1.543,0.639 1.997,1.102c0.454,0.464 0.682,1.073 0.682,1.828c0,0.791 -0.268,1.418 -0.804,1.882c-0.536,0.463 -1.224,0.695 -2.065,0.695c-0.827,0 -1.547,-0.249 -2.16,-0.746c-0.613,-0.497 -0.908,-1.218 -0.885,-2.163l0.013,-0.041l0.76,0c0,0.769 0.223,1.335 0.668,1.699c0.445,0.364 0.98,0.546 1.604,0.546c0.615,0 1.11,-0.17 1.485,-0.509c0.375,-0.339 0.563,-0.789 0.563,-1.35Z" style="fill-rule:nonzero;"/><path d="M161.23,255.363l-2.76,0l0,9.156l-0.814,0l0,-9.156l-2.754,0l0,-0.719l6.328,0l0,0.719Z" style="fill-rule:nonzero;"/><rect x="161.04" y="263.393" width="0.882" height="1.126" style="fill-rule:nonzero;"/><path d="M171.931,264.519l-5.161,0l0,-0.638l2.679,-3.662c0.488,-0.669 0.831,-1.229 1.028,-1.679c0.196,-0.449 0.295,-0.885 0.295,-1.305c0,-0.606 -0.137,-1.093 -0.411,-1.461c-0.273,-0.369 -0.65,-0.553 -1.129,-0.553c-0.601,0 -1.054,0.204 -1.36,0.614c-0.305,0.409 -0.457,0.961 -0.457,1.658l-0.767,0l-0.013,-0.034c-0.018,-0.832 0.207,-1.533 0.675,-2.103c0.467,-0.569 1.108,-0.854 1.922,-0.854c0.715,0 1.285,0.245 1.713,0.736c0.427,0.49 0.64,1.147 0.64,1.97c0,0.547 -0.139,1.102 -0.417,1.665c-0.278,0.563 -0.663,1.179 -1.156,1.848l-2.251,3.092l4.17,0l0,0.706Z" style="fill-rule:nonzero;"/><path d="M178.394,260.694c0,1.275 -0.227,2.255 -0.681,2.94c-0.455,0.684 -1.08,1.027 -1.875,1.027c-0.801,0 -1.43,-0.344 -1.889,-1.031c-0.459,-0.687 -0.689,-1.666 -0.689,-2.936l0,-2.211c0,-1.266 0.228,-2.246 0.682,-2.94c0.454,-0.694 1.082,-1.041 1.882,-1.041c0.8,0 1.429,0.346 1.885,1.038c0.457,0.691 0.685,1.672 0.685,2.943l0,2.211Zm-0.814,-2.354c0,-1.003 -0.15,-1.774 -0.451,-2.312c-0.3,-0.538 -0.735,-0.807 -1.305,-0.807c-0.565,0 -0.997,0.27 -1.295,0.81c-0.299,0.541 -0.448,1.31 -0.448,2.309l0,2.483c0,0.994 0.152,1.765 0.454,2.312c0.303,0.547 0.737,0.821 1.303,0.821c0.565,0 0.996,-0.273 1.295,-0.818c0.298,-0.544 0.447,-1.316 0.447,-2.315l0,-2.483Z" style="fill-rule:nonzero;"/><path d="M183.06,264.559l-0.814,0l0,-9.033l-2.028,0.278l0,-0.583l2.842,-0.597l0,9.935Z" style="fill-rule:nonzero;"/><path d="M191.564,260.694c0,1.275 -0.227,2.255 -0.681,2.94c-0.455,0.684 -1.08,1.027 -1.875,1.027c-0.801,0 -1.43,-0.344 -1.889,-1.031c-0.459,-0.687 -0.689,-1.666 -0.689,-2.936l0,-2.211c0,-1.266 0.228,-2.246 0.682,-2.94c0.454,-0.694 1.082,-1.041 1.882,-1.041c0.8,0 1.429,0.346 1.885,1.038c0.457,0.691 0.685,1.672 0.685,2.943l0,2.211Zm-0.814,-2.354c0,-1.003 -0.15,-1.774 -0.451,-2.312c-0.3,-0.538 -0.735,-0.807 -1.305,-0.807c-0.565,0 -0.997,0.27 -1.295,0.81c-0.299,0.541 -0.448,1.31 -0.448,2.309l0,2.483c0,0.994 0.152,1.765 0.454,2.312c0.303,0.547 0.737,0.821 1.303,0.821c0.565,0 0.996,-0.273 1.295,-0.818c0.298,-0.544 0.447,-1.316 0.447,-2.315l0,-2.483Z" style="fill-rule:nonzero;"/></g></svg>