<svg viewBox="0 0 80 80" xmlns="http://www.w3.org/2000/svg" fill-rule="evenodd" clip-rule="evenodd"><path d="M13.182 47.022h53.636M13.182 32.978h53.636M6.219 40L40 6.367 73.781 40 40 73.633 6.219 40zM.387 40L40 .561 79.613 40 40 79.44.387 40z" fill="none" stroke="#000" stroke-width=".5"/><path d="M41.639 14.153v-.001c-1.288-.743-3.087-.074-3.986 1.483-.757 1.313-.666 2.897.218 3.807.032-.387.119-.847.373-1.269.306-.508 1.023-.97 1.721-1.444.348-.237.692-.471.969-.69.276-.219.483-.431.562-.58.239-.45.208-.941.153-1.301l-.01-.005zm.44.335c.009.361-.026.775-.229 1.159-.133.25-.374.471-.668.704-.294.233-.643.472-.991.709-.698.474-1.399.976-1.606 1.319-.298.496-.33 1.01-.323 1.385.032.023.065.046.099.067 1.287.742 3.086.072 3.985-1.484l.001-.002c.772-1.34.66-2.959-.268-3.857zM22.648 45.239h-.784v-4.76h-4.676v4.76h-.784v-9.954h.784v4.466h4.676v-4.466h.784v9.954zM25.177 35.285h.784v9.954h-.784zM29.266 41.193v4.046h-.784v-9.954h2.898c.868 0 1.568.266 2.072.798.504.518.756 1.246.756 2.17 0 .952-.238 1.68-.728 2.184-.49.504-1.204.756-2.114.756h-2.1zm0-.728h2.114c.644 0 1.162-.196 1.512-.574.364-.378.546-.924.546-1.624 0-.686-.182-1.246-.546-1.638-.364-.406-.868-.602-1.512-.602h-2.114v4.438zM40.731 42.789c0-.56-.154-.994-.476-1.316-.322-.308-.91-.616-1.778-.91-.868-.294-1.498-.616-1.904-.98-.532-.462-.798-1.092-.798-1.862 0-.756.266-1.372.784-1.848.532-.49 1.204-.728 2.03-.728.854 0 1.54.28 2.086.84.532.56.798 1.274.798 2.142h-.784c0-.672-.182-1.204-.56-1.624-.378-.406-.896-.616-1.54-.616-.63 0-1.12.168-1.484.504-.364.35-.546.784-.546 1.316 0 .504.168.924.518 1.232.336.322.882.602 1.624.854.756.252 1.316.504 1.708.77.378.266.658.588.84.938.182.364.28.784.28 1.274 0 .784-.266 1.414-.798 1.89-.518.476-1.218.714-2.086.714-.588 0-1.12-.126-1.596-.364a2.792 2.792 0 01-1.134-1.036c-.266-.448-.406-.98-.406-1.582h.784c0 .7.21 1.246.63 1.652.434.406 1.008.602 1.722.602.63 0 1.134-.168 1.512-.504.378-.336.574-.784.574-1.358zM49.019 36.027H46.19v9.212h-.798v-9.212h-2.814v-.742h6.44v.742zM55.29 40.479h-3.865v4.032h4.438v.728h-5.222v-9.954h5.194v.742h-4.41v3.724h3.864v.728zM60.721 41.095h-2.324v4.144h-.784v-9.954h2.73c.91 0 1.61.266 2.1.77.504.518.756 1.246.756 2.17 0 .63-.154 1.204-.462 1.68-.308.49-.728.826-1.26 1.008l2.072 4.242v.084h-.826l-2.002-4.144zm-2.324-.728h2.086c.588 0 1.05-.196 1.4-.602.35-.406.532-.924.532-1.54 0-.7-.182-1.246-.546-1.624-.364-.392-.882-.574-1.54-.574h-1.932v4.34zM29.324 54.035c-.05.8-.26 1.39-.64 1.76-.38.37-.9.56-1.57.56-.69 0-1.23-.26-1.63-.78-.39-.52-.59-1.23-.6-2.12v-1.54c0-.9.21-1.6.61-2.11.41-.5.96-.76 1.66-.76.67 0 1.18.19 1.55.57.36.39.57.97.62 1.76h-.56c-.06-.65-.21-1.11-.46-1.38-.25-.28-.63-.42-1.15-.42-.53 0-.95.2-1.25.6-.3.4-.45.98-.45 1.74v1.53c0 .75.15 1.34.44 1.76.28.42.69.63 1.22.63.55 0 .95-.14 1.2-.41.25-.28.4-.74.45-1.39h.56zM35.128 53.475c0 .91-.2 1.62-.6 2.13-.41.5-.97.75-1.7.75-.72 0-1.28-.25-1.69-.75-.41-.51-.61-1.21-.62-2.12v-1.55c0-.91.21-1.62.61-2.13.41-.5.97-.76 1.69-.76.73 0 1.3.26 1.7.76.41.51.61 1.23.61 2.15v1.52zm-.56-1.55c0-.77-.15-1.36-.45-1.75-.3-.39-.73-.59-1.3-.59-.54 0-.96.2-1.27.58-.31.38-.46.95-.47 1.71v1.6c0 .78.16 1.36.47 1.76.3.39.73.59 1.28.59.57 0 1-.2 1.3-.59.29-.39.44-.98.44-1.76v-1.55zM39.906 52.945h-2.73v3.31h-.56v-7.11h3.7v.53h-3.14v2.74h2.73v.53zM44.809 52.945h-2.73v3.31h-.56v-7.11h3.7v.53h-3.14v2.74h2.73v.53zM49.741 52.855h-2.76v2.88h3.17v.52h-3.73v-7.11h3.71v.53h-3.15v2.66h2.76v.52zM54.712 52.855h-2.76v2.88h3.17v.52h-3.73v-7.11h3.71v.53h-3.15v2.66h2.76v.52zM27.233 30.085c-.24.31-.54.54-.9.7-.36.15-.75.23-1.18.23-.73 0-1.31-.25-1.72-.73-.42-.49-.64-1.17-.65-2.04v-1.72c0-.91.2-1.61.59-2.09.4-.49.96-.73 1.69-.73.66 0 1.17.18 1.54.54.37.37.58.89.63 1.57h-.56c-.06-.55-.22-.95-.48-1.2s-.64-.38-1.12-.38c-.58 0-1.02.19-1.3.58-.29.38-.44.95-.44 1.7v1.64c0 .74.16 1.31.48 1.72.32.41.76.62 1.34.62.62 0 1.13-.2 1.52-.59v-1.85h-1.56v-.52h2.12v2.55zM32.127 27.515h-2.76v2.88h3.17v.52h-3.73v-7.11h3.71v.53h-3.15v2.66h2.76v.52zM38.219 30.915h-.55l-3.36-6.05v6.05h-.56v-7.11h.56l3.36 6.07v-6.07h.55v7.11zM43.202 27.515h-2.76v2.88h3.17v.52h-3.73v-7.11h3.71v.53h-3.15v2.66h2.76v.52zM47.034 27.955h-1.66v2.96h-.56v-7.11h1.95c.65 0 1.15.19 1.5.55.36.37.54.89.54 1.55 0 .45-.11.86-.33 1.2-.22.35-.52.59-.9.72l1.48 3.03v.06h-.59l-1.43-2.96zm-1.66-.52h1.49c.42 0 .75-.14 1-.43s.38-.66.38-1.1c0-.5-.13-.89-.39-1.16-.26-.28-.63-.41-1.1-.41h-1.38v3.1zM50.393 23.805h.56v7.11h-.56zM56.965 28.695c-.05.8-.26 1.39-.64 1.76-.38.37-.9.56-1.57.56-.69 0-1.23-.26-1.63-.78-.39-.52-.59-1.23-.6-2.12v-1.54c0-.9.21-1.6.61-2.11.41-.5.96-.76 1.66-.76.67 0 1.18.19 1.55.57.36.39.57.97.62 1.76h-.56c-.06-.65-.21-1.11-.46-1.38-.25-.28-.63-.42-1.15-.42-.53 0-.95.2-1.25.6-.3.4-.45.98-.45 1.74v1.53c0 .75.15 1.34.44 1.76.28.42.69.63 1.22.63.55 0 .95-.14 1.2-.41.25-.28.4-.74.45-1.39h.56zM34.958 62.351h-.92v.96h1.057v.174H33.85v-2.37h1.237v.176h-1.05v.887h.92v.173zM36.622 62.901a.42.42 0 00-.114-.313c-.076-.073-.216-.147-.423-.217s-.357-.146-.453-.233a.56.56 0 01-.19-.443c0-.18.063-.327.186-.44a.683.683 0 01.484-.174.66.66 0 01.496.2.71.71 0 01.19.51h-.186a.551.551 0 00-.134-.386.48.48 0 00-.366-.147c-.15 0-.267.04-.354.12a.415.415 0 00-.13.313c0 .12.04.22.124.294.08.076.21.143.386.203.18.06.314.12.407.183a.63.63 0 01.2.224.667.667 0 01.067.303.575.575 0 01-.19.45c-.124.113-.29.17-.497.17a.839.839 0 01-.38-.087.665.665 0 01-.27-.246.728.728 0 01-.097-.377h.187c0 .167.05.297.15.393.103.097.24.144.41.144.15 0 .27-.04.36-.12a.41.41 0 00.137-.324zM38.589 61.291h-.674v2.194h-.19V61.29h-.67v-.176h1.534v.176zM38.57 63.365c0-.037.01-.07.037-.097.023-.027.057-.04.1-.04.043 0 .08.013.103.04a.13.13 0 01.037.097c0 .04-.01.07-.037.096a.144.144 0 01-.103.037.136.136 0 01-.1-.037.126.126 0 01-.037-.096zM41.352 63.485h-1.257v-.154l.673-.91a2.01 2.01 0 00.237-.386c.043-.1.067-.2.067-.297a.561.561 0 00-.107-.357.361.361 0 00-.297-.13c-.133 0-.24.05-.316.154-.08.1-.12.233-.12.393h-.18c0-.207.056-.377.17-.513a.562.562 0 01.446-.204c.18 0 .324.057.43.17.104.114.157.267.157.467 0 .19-.087.413-.257.667l-.103.15-.58.783h1.037v.167zM42.926 62.495c0 .336-.053.59-.157.763a.501.501 0 01-.456.26.501.501 0 01-.457-.26c-.106-.17-.16-.42-.16-.743v-.417c0-.33.05-.58.153-.757a.503.503 0 01.46-.26c.2 0 .35.084.454.254.106.166.16.41.163.733v.427zm-.183-.424c0-.27-.037-.476-.107-.613-.073-.137-.183-.207-.327-.207-.14 0-.246.067-.32.197-.073.133-.113.33-.116.59v.48c0 .263.036.47.113.613.073.147.183.217.327.217.136 0 .243-.067.316-.203.074-.137.11-.34.114-.607v-.467zM44.11 63.485h-.18v-2.13l-.536.24v-.187l.687-.3h.03v2.377zM46.168 62.495c0 .336-.053.59-.156.763a.501.501 0 01-.457.26.501.501 0 01-.457-.26c-.106-.17-.16-.42-.16-.743v-.417c0-.33.05-.58.154-.757a.503.503 0 01.46-.26c.2 0 .35.084.453.254.107.166.16.41.163.733v.427zm-.183-.424c0-.27-.037-.476-.107-.613-.073-.137-.183-.207-.326-.207-.14 0-.247.067-.32.197-.074.133-.114.33-.117.59v.48c0 .263.037.47.113.613.074.147.184.217.327.217.137 0 .243-.067.317-.203.073-.137.11-.34.113-.607v-.467z" fill-rule="nonzero"/></svg>