<?xml version="1.0" standalone="no"?>
<!DOCTYPE svg PUBLIC "-//W3C//DTD SVG 20010904//EN"
 "http://www.w3.org/TR/2001/REC-SVG-20010904/DTD/svg10.dtd">
<svg version="1.0" xmlns="http://www.w3.org/2000/svg"
 width="500.000000pt" height="500.000000pt" viewBox="0 0 500.000000 500.000000"
 preserveAspectRatio="xMidYMid meet">
<metadata>
Created by potrace 1.11, written by Peter Selinger 2001-2013
</metadata>
<g transform="translate(0.000000,500.000000) scale(0.100000,-0.100000)"
fill="#000000" stroke="none">
<path d="M2140 4744 c-140 -141 -679 -678 -1197 -1196 l-943 -940 0 -48 0 -48
735 -733 c405 -404 956 -953 1226 -1220 l489 -485 368 364 c202 200 764 759
1248 1243 l882 879 -1012 1009 c-556 555 -1107 1104 -1223 1220 l-213 211 -52
-1 -53 -1 -255 -254z m2458 -1934 l253 -250 -308 -306 c-169 -168 -710 -706
-1200 -1196 l-893 -890 -987 985 c-544 542 -1081 1078 -1196 1192 -114 113
-207 210 -207 214 0 8 1231 1240 2071 2074 l321 318 946 -945 c521 -520 1061
-1058 1200 -1196z"/>
<path d="M2228 4470 c-123 -122 -604 -601 -1069 -1066 l-847 -844 192 -191
c105 -104 586 -584 1068 -1065 l877 -875 168 166 c92 91 573 571 1069 1065
l901 900 -866 864 c-476 476 -957 955 -1068 1066 l-202 201 -223 -221z m1538
-1197 c-2 -2 -21 0 -43 5 -44 10 -148 9 -208 -3 -104 -20 -221 -108 -277 -208
-26 -46 -60 -142 -74 -207 -13 -63 -12 -478 2 -570 43 -283 216 -444 466 -435
48 2 103 9 123 15 20 7 38 10 41 8 2 -3 -300 -307 -671 -677 l-675 -673 -675
673 c-371 370 -675 673 -675 674 0 1 23 -4 51 -11 115 -30 310 1 409 64 59 38
120 101 121 127 1 27 1 475 0 498 -1 16 -18 17 -216 17 l-215 0 0 -77 0 -78
127 0 128 0 0 -159 0 -160 -43 -33 c-54 -41 -108 -56 -198 -57 -163 0 -278
118 -302 313 -9 73 -8 472 2 534 28 187 120 277 284 277 77 0 125 -17 171 -61
40 -39 81 -127 81 -174 0 -13 8 -28 18 -32 14 -7 85 -9 151 -4 33 2 -13 188
-66 264 -77 111 -193 162 -367 161 l-99 0 657 654 657 654 659 -658 c363 -362
658 -659 656 -661z m-39 -156 c78 -28 135 -122 149 -242 4 -30 12 -55 18 -56
12 -1 121 -1 150 0 16 1 17 7 12 59 -3 31 -10 72 -15 91 -6 19 -9 36 -8 37 2
2 105 -98 229 -221 l226 -224 -235 -235 c-129 -129 -232 -225 -228 -213 20 66
31 127 31 162 l-1 40 -84 0 -84 0 -16 -80 c-9 -44 -25 -97 -36 -119 -63 -131
-295 -151 -400 -35 -84 93 -105 198 -101 514 3 246 5 258 38 350 26 70 103
155 158 172 46 15 157 14 197 0z m-2938 -243 c-7 -34 -12 -162 -11 -299 0
-227 8 -328 33 -393 6 -15 8 -24 5 -22 -2 3 -95 94 -204 202 l-200 198 191
190 c105 104 192 188 194 186 2 -1 -2 -29 -8 -62z"/>
<path d="M1970 2570 l0 -701 88 3 87 3 0 320 0 320 278 0 c186 1 277 -2 278
-10 1 -5 2 -149 3 -320 l1 -310 88 -3 c78 -2 87 -1 88 15 1 22 1 1342 0 1364
-1 12 -17 15 -89 16 l-87 1 0 -296 0 -297 -280 -3 -280 -2 0 297 0 298 -87 3
-88 3 0 -701z"/>
</g>
</svg>
