<?xml version="1.0" standalone="no"?>
<!DOCTYPE svg PUBLIC "-//W3C//DTD SVG 20010904//EN"
 "http://www.w3.org/TR/2001/REC-SVG-20010904/DTD/svg10.dtd">
<svg version="1.0" xmlns="http://www.w3.org/2000/svg"
 width="700.000000pt" height="700.000000pt" viewBox="0 0 700.000000 700.000000"
 preserveAspectRatio="xMidYMid meet">
<metadata>
Created by potrace 1.11, written by Peter Selinger 2001-2013
</metadata>
<g transform="translate(0.000000,700.000000) scale(0.100000,-0.100000)"
fill="#000000" stroke="none">
<path d="M1717 5282 l-1717 -1717 0 -71 0 -70 736 -735 c404 -403 737 -736
740 -739 3 -2 -20 47 -50 110 -97 204 -164 430 -203 687 -20 136 -23 515 -5
658 75 582 303 1123 670 1585 98 123 351 376 473 473 646 510 1432 689 2098
475 53 -17 121 -41 151 -55 51 -22 16 15 -515 547 l-570 570 -45 0 -45 0
-1718 -1718z"/>
<path d="M4846 5620 c12 -111 7 -369 -10 -470 -34 -209 -105 -390 -203 -517
-107 -141 -333 -338 -635 -556 -79 -57 -336 -236 -573 -397 -549 -375 -709
-490 -881 -635 -131 -110 -302 -284 -378 -386 -168 -222 -300 -563 -351 -913
l-18 -118 150 -150 150 -149 11 168 c14 201 33 318 77 474 71 245 172 431 316
583 213 224 517 457 1239 951 652 447 960 693 1129 903 167 207 274 513 296
847 l7 100 -167 165 -167 165 8 -65z"/>
<path d="M5580 4939 c0 -3 13 -35 29 -70 16 -35 45 -113 65 -174 258 -787 108
-1698 -408 -2469 -247 -370 -572 -682 -941 -903 -425 -256 -937 -384 -1365
-344 -235 23 -463 83 -642 171 l-83 40 595 -595 595 -595 50 0 50 0 1737 1737
c1385 1385 1738 1743 1738 1763 0 20 -148 173 -710 735 -390 390 -710 707
-710 704z"/>
</g>
</svg>
