<?xml version="1.0" standalone="no"?>
<!DOCTYPE svg PUBLIC "-//W3C//DTD SVG 20010904//EN"
 "http://www.w3.org/TR/2001/REC-SVG-20010904/DTD/svg10.dtd">
<svg version="1.0" xmlns="http://www.w3.org/2000/svg"
 width="300.000000pt" height="300.000000pt" viewBox="0 0 300.000000 300.000000"
 preserveAspectRatio="xMidYMid meet">
<metadata>
Created by potrace 1.11, written by Peter Selinger 2001-2013
</metadata>
<g transform="translate(0.000000,300.000000) scale(0.100000,-0.100000)"
fill="#000000" stroke="none">
<path d="M0 1500 l0 -1500 1500 0 1500 0 0 1500 0 1500 -1500 0 -1500 0 0
-1500z m2245 865 c205 -54 343 -217 370 -437 l6 -58 -109 0 -109 0 -6 58 c-17
157 -105 249 -249 260 -144 10 -227 -27 -275 -126 -23 -46 -28 -70 -28 -132 0
-155 76 -225 364 -335 260 -100 372 -216 402 -418 38 -255 -96 -458 -341 -517
-72 -17 -221 -18 -290 -1 -142 35 -284 141 -344 258 -29 57 -56 159 -56 211
l0 33 107 -3 108 -3 7 -58 c21 -163 123 -256 295 -265 106 -6 178 16 232 69
92 93 95 292 4 383 -42 41 -131 89 -273 146 -156 62 -234 106 -300 170 -231
222 -155 624 140 740 30 12 73 25 95 30 67 13 188 11 250 -5z m-1299 -15 c193
-25 312 -124 353 -293 25 -102 13 -256 -26 -331 -20 -40 -98 -121 -140 -147
l-33 -21 50 -25 c140 -70 217 -253 191 -455 -15 -114 -48 -195 -107 -264 -55
-65 -113 -101 -203 -126 -57 -16 -105 -18 -363 -18 l-298 0 0 845 0 845 253 0
c138 0 284 -5 323 -10z"/>
<path d="M580 1905 l0 -265 158 0 c86 0 174 5 196 11 52 14 121 80 143 137 28
72 24 207 -9 269 -26 52 -70 87 -127 103 -20 5 -109 10 -198 10 l-163 0 0
-265z"/>
<path d="M580 1156 l0 -306 163 0 c89 0 180 5 202 11 68 19 121 63 152 126 26
54 28 66 27 173 0 127 -11 163 -64 224 -52 59 -92 69 -297 74 l-183 4 0 -306z"/>
</g>
</svg>
