<?xml version="1.0" standalone="no"?>
<!DOCTYPE svg PUBLIC "-//W3C//DTD SVG 20010904//EN"
 "http://www.w3.org/TR/2001/REC-SVG-20010904/DTD/svg10.dtd">
<svg version="1.0" xmlns="http://www.w3.org/2000/svg"
 width="300.000000pt" height="300.000000pt" viewBox="0 0 300.000000 300.000000"
 preserveAspectRatio="xMidYMid meet">
<metadata>
Created by potrace 1.11, written by Peter Selinger 2001-2013
</metadata>
<g transform="translate(0.000000,300.000000) scale(0.100000,-0.100000)"
fill="#000000" stroke="none">
<path d="M0 1500 l0 -1500 1500 0 1500 0 0 1500 0 1500 -1500 0 -1500 0 0
-1500z m2249 859 c119 -26 251 -130 305 -242 31 -63 56 -158 56 -209 l0 -38
-100 0 c-112 0 -102 -8 -115 90 -9 69 -51 147 -98 181 -108 78 -282 77 -373
-3 -53 -47 -77 -101 -82 -190 -4 -69 -2 -83 23 -133 43 -88 121 -140 332 -220
299 -113 413 -250 413 -496 0 -207 -101 -354 -290 -421 -56 -20 -83 -23 -200
-22 -121 0 -142 3 -202 26 -74 30 -103 46 -167 98 -86 68 -161 221 -161 326
l0 44 98 0 99 0 12 -66 c15 -82 38 -128 88 -175 51 -49 87 -66 168 -79 209
-33 348 71 348 261 0 167 -63 232 -333 339 -232 92 -333 167 -396 295 -29 58
-37 87 -41 152 -24 342 255 559 616 482z m-1241 -24 c76 -18 124 -42 179 -90
114 -97 158 -344 89 -498 -26 -60 -117 -159 -156 -172 -30 -9 -25 -20 19 -40
49 -22 112 -82 145 -137 71 -121 76 -336 11 -482 -28 -63 -103 -148 -161 -182
-88 -52 -126 -57 -456 -61 l-308 -5 0 841 0 841 288 0 c218 0 302 -4 350 -15z"/>
<path d="M580 1905 l0 -277 168 4 c193 5 231 16 287 80 44 52 65 115 65 198 0
131 -49 219 -137 249 -22 8 -109 15 -210 18 l-173 5 0 -277z"/>
<path d="M580 1156 l0 -306 173 0 c94 0 189 5 211 11 23 6 57 29 86 58 62 62
84 126 82 241 -1 142 -41 227 -125 273 -39 20 -58 22 -234 25 l-193 4 0 -306z"/>
</g>
</svg>
